<?xml version="1.0" encoding="UTF-8"?>
<!DOCTYPE svg PUBLIC "-//W3C//DTD SVG 1.1//EN"
    "http://www.w3.org/Graphics/SVG/1.1/DTD/svg11.dtd" >
<svg contentScriptType="text/ecmascript" width="342.11188"
     xmlns:xlink="http://www.w3.org/1999/xlink" zoomAndPan="magnify"
     contentStyleType="text/css"
     viewBox="-167.150146 -156.000000 342.111877 309.000000" height="309.0"
     preserveAspectRatio="xMidYMid meet" xmlns="http://www.w3.org/2000/svg"
     version="1.1">
    <g id="edges">
        <path fill="none" stroke-width="1.0"
              d="M -69.398964,88.140915 C -71.008919,71.322372 -48.196026,43.679623 -31.377481,42.069672"
              class="id_27 id_14" stroke-opacity="1.0" stroke="#282828"/>
        <path fill="none" stroke-width="1.0"
              d="M 4.775207,-9.310735 C -32.748627,3.425394 -108.138565,-33.756165 -120.874695,-71.279999"
              class="id_17 id_20" stroke-opacity="1.0" stroke="#282828"/>
        <path fill="none" stroke-width="1.0"
              d="M -75.585655,-106.700027 C -27.356541,-95.579895 28.306923,-6.556023 17.186787,41.673092"
              class="id_10 id_3" stroke-opacity="1.0" stroke="#282828"/>
        <path fill="none" stroke-width="1.0"
              d="M -15.124696,-144.314117 C -21.667873,-108.557289 -85.117867,-64.736824 -120.874695,-71.279999"
              class="id_8 id_20" stroke-opacity="1.0" stroke="#282828"/>
        <path fill="none" stroke-width="1.0"
              d="M 81.497162,117.211899 C 77.673630,102.200821 94.454964,73.948914 109.466042,70.125381"
              class="id_7 id_6" stroke-opacity="1.0" stroke="#282828"/>
        <path fill="none" stroke-width="1.0"
              d="M 38.132870,141.548553 C 38.114868,112.997284 80.914764,70.143387 109.466042,70.125381"
              class="id_1 id_6" stroke-opacity="1.0" stroke="#282828"/>
        <path fill="none" stroke-width="1.0"
              d="M -25.818068,-48.902756 C -34.049118,-38.803917 -61.543953,-36.002232 -71.642792,-44.233280"
              class="id_2 id_25" stroke-opacity="1.0" stroke="#282828"/>
        <path fill="none" stroke-width="1.0"
              d="M -25.818068,-48.902756 C -47.331039,-50.508694 -77.191597,-85.187057 -75.585655,-106.700027"
              class="id_2 id_10" stroke-opacity="1.0" stroke="#282828"/>
        <path fill="none" stroke-width="1.0"
              d="M -2.082049,124.276100 C 2.144274,102.417412 41.271782,75.968864 63.130466,80.195190"
              class="id_15 id_23" stroke-opacity="1.0" stroke="#282828"/>
        <path fill="none" stroke-width="1.0"
              d="M -75.585655,-106.700027 C -29.964457,-136.369156 82.971046,-112.441055 112.640175,-66.819855"
              class="id_10 id_22" stroke-opacity="1.0" stroke="#282828"/>
        <path fill="none" stroke-width="1.0"
              d="M 4.775207,-9.310735 C -30.774822,-12.716421 -78.991341,-71.149994 -75.585655,-106.700027"
              class="id_17 id_10" stroke-opacity="1.0" stroke="#282828"/>
        <path fill="none" stroke-width="1.0"
              d="M 38.132870,141.548553 C 26.635395,146.137039 2.506445,135.773575 -2.082049,124.276100"
              class="id_1 id_15" stroke-opacity="1.0" stroke="#282828"/>
        <path fill="none" stroke-width="1.0"
              d="M 34.080704,-47.728062 C 25.057653,-66.466904 39.631332,-108.109741 58.370174,-117.132790"
              class="id_5 id_13" stroke-opacity="1.0" stroke="#282828"/>
        <path fill="none" stroke-width="1.0"
              d="M 24.150900,-90.865593 C 32.448311,-24.949341 -53.979946,86.371147 -119.896202,94.668556"
              class="id_0 id_9" stroke-opacity="1.0" stroke="#282828"/>
        <path fill="none" stroke-width="1.0"
              d="M -119.896202,94.668556 C -126.270874,75.243073 -106.694641,36.542824 -87.269157,30.168152"
              class="id_9 id_11" stroke-opacity="1.0" stroke="#282828"/>
        <path fill="none" stroke-width="1.0"
              d="M -40.310673,-101.817413 C -42.342674,-71.197891 -91.319946,-28.316616 -121.939468,-30.348616"
              class="id_12 id_28" stroke-opacity="1.0" stroke="#282828"/>
        <path fill="none" stroke-width="1.0"
              d="M -25.818068,-48.902756 C 7.022552,-54.623688 64.864868,-13.944149 70.585800,18.896471"
              class="id_2 id_18" stroke-opacity="1.0" stroke="#282828"/>
        <path fill="none" stroke-width="1.0"
              d="M -75.585655,-106.700027 C -52.471458,-123.480453 7.370476,-113.979790 24.150900,-90.865593"
              class="id_10 id_0" stroke-opacity="1.0" stroke="#282828"/>
        <path fill="none" stroke-width="1.0"
              d="M 34.080704,-47.728062 C 49.880676,4.968395 -5.464054,107.713028 -58.160511,123.513000"
              class="id_5 id_19" stroke-opacity="1.0" stroke="#282828"/>
        <path fill="none" stroke-width="1.0"
              d="M -2.082049,124.276100 C 13.220953,106.147415 63.368477,101.908897 81.497162,117.211899"
              class="id_15 id_7" stroke-opacity="1.0" stroke="#282828"/>
        <path fill="none" stroke-width="1.0"
              d="M -48.499756,5.358735 C -63.046768,0.068939 -76.932587,-29.686270 -71.642792,-44.233280"
              class="id_4 id_25" stroke-opacity="1.0" stroke="#282828"/>
        <path fill="none" stroke-width="1.0"
              d="M -25.818068,-48.902756 C -22.626427,-79.386414 27.886517,-120.324432 58.370174,-117.132790"
              class="id_2 id_13" stroke-opacity="1.0" stroke="#282828"/>
        <path fill="none" stroke-width="1.0"
              d="M 112.640175,-66.819855 C 65.045166,-21.008907 -75.063751,-23.684994 -120.874695,-71.279999"
              class="id_22 id_20" stroke-opacity="1.0" stroke="#282828"/>
        <path fill="none" stroke-width="1.0"
              d="M -58.160511,123.513000 C -53.334557,76.840431 23.913233,14.070517 70.585800,18.896471"
              class="id_19 id_18" stroke-opacity="1.0" stroke="#282828"/>
        <path fill="none" stroke-width="1.0"
              d="M 143.407333,33.666847 C 147.734314,62.757893 110.588211,112.884918 81.497162,117.211899"
              class="id_29 id_7" stroke-opacity="1.0" stroke="#282828"/>
        <path fill="none" stroke-width="1.0"
              d="M -121.939468,-30.348616 C -106.426018,-53.283726 -48.753178,-64.416214 -25.818068,-48.902756"
              class="id_28 id_2" stroke-opacity="1.0" stroke="#282828"/>
        <path fill="none" stroke-width="1.0"
              d="M -2.082049,124.276100 C -29.250332,82.642715 -7.552681,-20.559780 34.080704,-47.728062"
              class="id_15 id_5" stroke-opacity="1.0" stroke="#282828"/>
        <path fill="none" stroke-width="1.0"
              d="M -87.269157,30.168152 C -78.578430,-9.681065 -5.768513,-56.418793 34.080704,-47.728062"
              class="id_11 id_5" stroke-opacity="1.0" stroke="#282828"/>
        <path fill="none" stroke-width="1.0"
              d="M -25.818068,-48.902756 C 17.791229,-40.872871 71.160347,36.585896 63.130466,80.195190"
              class="id_2 id_23" stroke-opacity="1.0" stroke="#282828"/>
        <path fill="none" stroke-width="1.0"
              d="M 63.130466,80.195190 C 46.237312,81.679504 18.671103,58.566246 17.186787,41.673092"
              class="id_23 id_3" stroke-opacity="1.0" stroke="#282828"/>
        <path fill="none" stroke-width="1.0"
              d="M 38.132870,141.548553 C 41.938400,128.008377 67.956970,113.406372 81.497162,117.211899"
              class="id_1 id_7" stroke-opacity="1.0" stroke="#282828"/>
        <path fill="none" stroke-width="1.0"
              d="M 143.407333,33.666847 C 143.910782,47.746811 123.546013,69.621933 109.466042,70.125381"
              class="id_29 id_6" stroke-opacity="1.0" stroke="#282828"/>
        <path fill="none" stroke-width="1.0"
              d="M 24.150900,-90.865593 C 5.606075,-93.700180 -17.959282,-125.769302 -15.124696,-144.314117"
              class="id_0 id_8" stroke-opacity="1.0" stroke="#282828"/>
        <path fill="none" stroke-width="1.0"
              d="M -120.874695,-71.279999 C -110.869370,-93.500290 -62.530960,-111.822739 -40.310673,-101.817413"
              class="id_20 id_12" stroke-opacity="1.0" stroke="#282828"/>
        <path fill="none" stroke-width="1.0"
              d="M -25.818068,-48.902756 C -8.735464,-29.596386 -12.071112,24.987068 -31.377481,42.069672"
              class="id_2 id_14" stroke-opacity="1.0" stroke="#282828"/>
        <path fill="none" stroke-width="1.0"
              d="M 58.370174,-117.132790 C 38.234936,-107.870079 -5.861987,-124.178879 -15.124696,-144.314117"
              class="id_13 id_8" stroke-opacity="1.0" stroke="#282828"/>
        <path fill="none" stroke-width="1.0"
              d="M 70.585800,18.896471 C 92.431160,36.377281 98.977974,95.366539 81.497162,117.211899"
              class="id_18 id_7" stroke-opacity="1.0" stroke="#282828"/>
        <path fill="none" stroke-width="1.0"
              d="M -87.269157,30.168152 C -89.191895,-16.322609 -22.339861,-88.942856 24.150900,-90.865593"
              class="id_11 id_0" stroke-opacity="1.0" stroke="#282828"/>
        <path fill="none" stroke-width="1.0"
              d="M -119.896202,94.668556 C -111.102280,83.263580 -80.803940,79.346992 -69.398964,88.140915"
              class="id_9 id_27" stroke-opacity="1.0" stroke="#282828"/>
        <path fill="none" stroke-width="1.0"
              d="M 17.186787,41.673092 C 18.485310,73.110535 -26.723072,122.214478 -58.160511,123.513000"
              class="id_3 id_19" stroke-opacity="1.0" stroke="#282828"/>
        <path fill="none" stroke-width="1.0"
              d="M -75.585655,-106.700027 C -36.990074,-85.787720 -10.465174,3.474094 -31.377481,42.069672"
              class="id_10 id_14" stroke-opacity="1.0" stroke="#282828"/>
        <path fill="none" stroke-width="1.0"
              d="M -69.398964,88.140915 C -37.229069,48.764809 70.089935,37.955482 109.466042,70.125381"
              class="id_27 id_6" stroke-opacity="1.0" stroke="#282828"/>
        <path fill="none" stroke-width="1.0"
              d="M 17.186787,41.673092 C 41.333096,28.907698 96.700653,45.979073 109.466042,70.125381"
              class="id_3 id_6" stroke-opacity="1.0" stroke="#282828"/>
        <path fill="none" stroke-width="1.0"
              d="M 24.150900,-90.865593 C 46.657902,-103.754295 99.751472,-89.326859 112.640175,-66.819855"
              class="id_0 id_22" stroke-opacity="1.0" stroke="#282828"/>
        <path fill="none" stroke-width="1.0"
              d="M 112.640175,-66.819855 C 139.394394,-38.795982 137.489914,43.371162 109.466042,70.125381"
              class="id_22 id_6" stroke-opacity="1.0" stroke="#282828"/>
        <path fill="none" stroke-width="1.0"
              d="M 70.585800,18.896471 C 64.461319,34.131599 32.421913,47.797569 17.186787,41.673092"
              class="id_18 id_3" stroke-opacity="1.0" stroke="#282828"/>
        <path fill="none" stroke-width="1.0"
              d="M 4.775207,-9.310735 C 7.820751,8.195883 -13.870863,39.024128 -31.377481,42.069672"
              class="id_17 id_14" stroke-opacity="1.0" stroke="#282828"/>
        <path fill="none" stroke-width="1.0"
              d="M -58.160511,123.513000 C -94.188568,125.680969 -151.482590,74.890839 -153.650558,38.862778"
              class="id_19 id_24" stroke-opacity="1.0" stroke="#282828"/>
        <path fill="none" stroke-width="1.0"
              d="M 34.080704,-47.728062 C 8.384561,-43.667660 -36.250271,-76.121269 -40.310673,-101.817413"
              class="id_5 id_12" stroke-opacity="1.0" stroke="#282828"/>
        <path fill="none" stroke-width="1.0"
              d="M -121.939468,-30.348616 C -127.938980,-54.889660 -100.126694,-100.700516 -75.585655,-106.700027"
              class="id_28 id_10" stroke-opacity="1.0" stroke="#282828"/>
        <path fill="none" stroke-width="1.0"
              d="M -87.269157,30.168152 C -76.756058,3.863503 -21.529442,-19.823830 4.775207,-9.310735"
              class="id_11 id_17" stroke-opacity="1.0" stroke="#282828"/>
        <path fill="none" stroke-width="1.0"
              d="M 112.640175,-66.819855 C 114.230164,-56.395657 100.978836,-38.374374 90.554634,-36.784389"
              class="id_22 id_16" stroke-opacity="1.0" stroke="#282828"/>
        <path fill="none" stroke-width="1.0"
              d="M -71.642792,-44.233280 C -37.713531,-75.182983 59.604927,-70.713654 90.554634,-36.784389"
              class="id_25 id_16" stroke-opacity="1.0" stroke="#282828"/>
        <path fill="none" stroke-width="1.0"
              d="M 143.407333,33.666847 C 120.224358,74.396317 24.355711,100.716064 -16.373758,77.533089"
              class="id_29 id_26" stroke-opacity="1.0" stroke="#282828"/>
        <path fill="none" stroke-width="1.0"
              d="M -15.124696,-144.314117 C -19.694071,-124.699112 -55.970642,-102.130653 -75.585655,-106.700027"
              class="id_8 id_10" stroke-opacity="1.0" stroke="#282828"/>
        <path fill="none" stroke-width="1.0"
              d="M 24.150900,-90.865593 C 9.068222,-80.163643 -29.608723,-86.734741 -40.310673,-101.817413"
              class="id_0 id_12" stroke-opacity="1.0" stroke="#282828"/>
        <path fill="none" stroke-width="1.0"
              d="M -87.269157,30.168152 C -72.100571,38.188663 -61.378448,72.972328 -69.398964,88.140915"
              class="id_11 id_27" stroke-opacity="1.0" stroke="#282828"/>
        <path fill="none" stroke-width="1.0"
              d="M -87.269157,30.168152 C -114.279892,16.599628 -134.443222,-44.269260 -120.874695,-71.279999"
              class="id_11 id_20" stroke-opacity="1.0" stroke="#282828"/>
        <path fill="none" stroke-width="1.0"
              d="M 4.775207,-9.310735 C 16.436359,-31.961351 67.904022,-48.445541 90.554634,-36.784389"
              class="id_17 id_16" stroke-opacity="1.0" stroke="#282828"/>
        <path fill="none" stroke-width="1.0"
              d="M 81.497162,117.211899 C 45.503742,141.576935 -45.033939,124.134331 -69.398964,88.140915"
              class="id_7 id_27" stroke-opacity="1.0" stroke="#282828"/>
        <path fill="none" stroke-width="1.0"
              d="M -120.874695,-71.279999 C -91.071960,-70.427238 -47.646996,-24.444000 -48.499756,5.358735"
              class="id_20 id_4" stroke-opacity="1.0" stroke="#282828"/>
        <path fill="none" stroke-width="1.0"
              d="M -48.499756,5.358735 C -36.123161,26.095013 -48.662689,75.764320 -69.398964,88.140915"
              class="id_4 id_27" stroke-opacity="1.0" stroke="#282828"/>
        <path fill="none" stroke-width="1.0"
              d="M -31.377481,42.069672 C -21.284052,46.161610 -12.281820,67.439659 -16.373758,77.533089"
              class="id_14 id_26" stroke-opacity="1.0" stroke="#282828"/>
        <path fill="none" stroke-width="1.0"
              d="M 34.080704,-47.728062 C 47.564224,-56.834110 81.448586,-50.267910 90.554634,-36.784389"
              class="id_5 id_16" stroke-opacity="1.0" stroke="#282828"/>
        <path fill="none" stroke-width="1.0"
              d="M -69.398964,88.140915 C -44.482224,60.045887 35.035435,55.278446 63.130466,80.195190"
              class="id_27 id_23" stroke-opacity="1.0" stroke="#282828"/>
        <path fill="none" stroke-width="1.0"
              d="M -121.939468,-30.348616 C -51.740044,-41.523838 70.321938,47.012474 81.497162,117.211899"
              class="id_28 id_7" stroke-opacity="1.0" stroke="#282828"/>
        <path fill="none" stroke-width="1.0"
              d="M -15.124696,-144.314117 C 15.855964,-121.293419 27.795904,-40.291393 4.775207,-9.310735"
              class="id_8 id_17" stroke-opacity="1.0" stroke="#282828"/>
        <path fill="none" stroke-width="1.0"
              d="M 143.407333,33.666847 C 118.746544,30.147139 87.034927,-12.123602 90.554634,-36.784389"
              class="id_29 id_16" stroke-opacity="1.0" stroke="#282828"/>
        <path fill="none" stroke-width="1.0"
              d="M -71.642792,-44.233280 C -36.235710,-30.933815 -3.074293,42.126011 -16.373758,77.533089"
              class="id_25 id_26" stroke-opacity="1.0" stroke="#282828"/>
        <path fill="none" stroke-width="1.0"
              d="M 17.186787,41.673092 C 16.168859,11.308027 60.189568,-35.766464 90.554634,-36.784389"
              class="id_3 id_16" stroke-opacity="1.0" stroke="#282828"/>
        <path fill="none" stroke-width="1.0"
              d="M 70.585800,18.896471 C 40.936825,-5.866256 33.607449,-87.483818 58.370174,-117.132790"
              class="id_18 id_13" stroke-opacity="1.0" stroke="#282828"/>
        <path fill="none" stroke-width="1.0"
              d="M -120.874695,-71.279999 C -112.901367,-62.880768 -113.540237,-38.321938 -121.939468,-30.348616"
              class="id_20 id_28" stroke-opacity="1.0" stroke="#282828"/>
        <path fill="none" stroke-width="1.0"
              d="M -48.499756,5.358735 C -29.117504,-30.880768 54.315132,-56.166641 90.554634,-36.784389"
              class="id_4 id_16" stroke-opacity="1.0" stroke="#282828"/>
        <path fill="none" stroke-width="1.0"
              d="M 109.466042,70.125381 C 72.640656,75.176331 9.826151,27.514656 4.775207,-9.310735"
              class="id_6 id_17" stroke-opacity="1.0" stroke="#282828"/>
        <path fill="none" stroke-width="1.0"
              d="M -58.160511,123.513000 C -31.489195,94.321243 52.305408,90.540588 81.497162,117.211899"
              class="id_19 id_7" stroke-opacity="1.0" stroke="#282828"/>
        <path fill="none" stroke-width="1.0"
              d="M -69.398964,88.140915 C -111.578293,66.551872 -142.463745,-29.100666 -120.874695,-71.279999"
              class="id_27 id_20" stroke-opacity="1.0" stroke="#282828"/>
        <path fill="none" stroke-width="1.0"
              d="M -48.499756,5.358735 C -28.099579,-0.515701 11.312350,21.272913 17.186787,41.673092"
              class="id_4 id_3" stroke-opacity="1.0" stroke="#282828"/>
        <path fill="none" stroke-width="1.0"
              d="M 4.775207,-9.310735 C -6.070210,-41.594139 26.086771,-106.287376 58.370174,-117.132790"
              class="id_17 id_13" stroke-opacity="1.0" stroke="#282828"/>
        <path fill="none" stroke-width="1.0"
              d="M 38.132870,141.548553 C 1.289480,118.048225 -18.725119,27.532654 4.775207,-9.310735"
              class="id_1 id_17" stroke-opacity="1.0" stroke="#282828"/>
        <path fill="none" stroke-width="1.0"
              d="M -40.310673,-101.817413 C 16.780077,-86.103111 78.844757,23.104441 63.130466,80.195190"
              class="id_12 id_23" stroke-opacity="1.0" stroke="#282828"/>
        <path fill="none" stroke-width="1.0"
              d="M -2.082049,124.276100 C -27.427967,96.187279 -23.313614,16.035185 4.775207,-9.310735"
              class="id_15 id_17" stroke-opacity="1.0" stroke="#282828"/>
        <path fill="none" stroke-width="1.0"
              d="M -40.310673,-101.817413 C -26.829220,-94.133003 -18.133657,-62.384209 -25.818068,-48.902756"
              class="id_12 id_2" stroke-opacity="1.0" stroke="#282828"/>
        <path fill="none" stroke-width="1.0"
              d="M -25.818068,-48.902756 C 1.357965,-25.504448 7.024549,50.357056 -16.373758,77.533089"
              class="id_2 id_26" stroke-opacity="1.0" stroke="#282828"/>
        <path fill="none" stroke-width="1.0"
              d="M 34.080704,-47.728062 C 45.974239,-67.258316 93.109924,-78.713394 112.640175,-66.819855"
              class="id_5 id_22" stroke-opacity="1.0" stroke="#282828"/>
        <path fill="none" stroke-width="1.0"
              d="M -87.269157,30.168152 C -106.306572,24.998861 -127.108765,-11.311199 -121.939468,-30.348616"
              class="id_11 id_28" stroke-opacity="1.0" stroke="#282828"/>
        <path fill="none" stroke-width="1.0"
              d="M 38.132870,141.548553 C 12.950634,95.397614 44.403694,-11.602155 90.554634,-36.784389"
              class="id_1 id_16" stroke-opacity="1.0" stroke="#282828"/>
        <path fill="none" stroke-width="1.0"
              d="M 162.763382,-25.046139 C 174.961731,19.658712 126.202011,105.013535 81.497162,117.211899"
              class="id_21 id_7" stroke-opacity="1.0" stroke="#282828"/>
        <path fill="none" stroke-width="1.0"
              d="M -87.269157,30.168152 C -64.076981,11.577950 -1.403415,18.480915 17.186787,41.673092"
              class="id_11 id_3" stroke-opacity="1.0" stroke="#282828"/>
        <path fill="none" stroke-width="1.0"
              d="M -58.160511,123.513000 C -82.651215,110.665756 -100.116394,54.658852 -87.269157,30.168152"
              class="id_19 id_11" stroke-opacity="1.0" stroke="#282828"/>
        <path fill="none" stroke-width="1.0"
              d="M 63.130466,80.195190 C 70.383621,68.914116 98.184967,62.872227 109.466042,70.125381"
              class="id_23 id_6" stroke-opacity="1.0" stroke="#282828"/>
        <path fill="none" stroke-width="1.0"
              d="M -48.499756,5.358735 C -21.975096,-15.750830 49.476234,-7.628189 70.585800,18.896471"
              class="id_4 id_18" stroke-opacity="1.0" stroke="#282828"/>
        <path fill="none" stroke-width="1.0"
              d="M 109.466042,70.125381 C 91.444214,67.655647 68.116066,36.918304 70.585800,18.896471"
              class="id_6 id_18" stroke-opacity="1.0" stroke="#282828"/>
        <path fill="none" stroke-width="1.0"
              d="M -75.585655,-106.700027 C -67.554131,-112.778503 -46.389145,-109.848938 -40.310673,-101.817413"
              class="id_10 id_12" stroke-opacity="1.0" stroke="#282828"/>
        <path fill="none" stroke-width="1.0"
              d="M 4.775207,-9.310735 C 23.578766,-16.831411 63.065125,0.092911 70.585800,18.896471"
              class="id_17 id_18" stroke-opacity="1.0" stroke="#282828"/>
        <path fill="none" stroke-width="1.0"
              d="M -2.082049,124.276100 C -8.624405,88.666603 34.976303,25.438828 70.585800,18.896471"
              class="id_15 id_18" stroke-opacity="1.0" stroke="#282828"/>
        <path fill="none" stroke-width="1.0"
              d="M 24.150900,-90.865593 C 28.865635,-57.090595 -14.724758,0.644000 -48.499756,5.358735"
              class="id_0 id_4" stroke-opacity="1.0" stroke="#282828"/>
        <path fill="none" stroke-width="1.0"
              d="M 34.080704,-47.728062 C 23.467236,-54.369606 17.509354,-80.252121 24.150900,-90.865593"
              class="id_5 id_0" stroke-opacity="1.0" stroke="#282828"/>
        <path fill="none" stroke-width="1.0"
              d="M -25.818068,-48.902756 C 24.540936,-66.233917 126.076180,-16.692156 143.407333,33.666847"
              class="id_2 id_29" stroke-opacity="1.0" stroke="#282828"/>
        <path fill="none" stroke-width="1.0"
              d="M 81.497162,117.211899 C 43.893787,124.758385 -23.830999,79.673050 -31.377481,42.069672"
              class="id_7 id_14" stroke-opacity="1.0" stroke="#282828"/>
        <path fill="none" stroke-width="1.0"
              d="M 34.080704,-47.728062 C 4.922411,-57.204193 -24.600830,-115.155823 -15.124696,-144.314117"
              class="id_5 id_8" stroke-opacity="1.0" stroke="#282828"/>
        <path fill="none" stroke-width="1.0"
              d="M 70.585800,18.896471 C 81.354477,32.647282 76.881279,69.426514 63.130466,80.195190"
              class="id_18 id_23" stroke-opacity="1.0" stroke="#282828"/>
        <path fill="none" stroke-width="1.0"
              d="M -69.398964,88.140915 C -96.322571,62.114841 -97.668861,-17.309675 -71.642792,-44.233280"
              class="id_27 id_25" stroke-opacity="1.0" stroke="#282828"/>
        <path fill="none" stroke-width="1.0"
              d="M -2.082049,124.276100 C -49.478416,137.507141 -140.419525,86.259148 -153.650558,38.862778"
              class="id_15 id_24" stroke-opacity="1.0" stroke="#282828"/>
        <path fill="none" stroke-width="1.0"
              d="M -87.269157,30.168152 C -87.601479,-28.419903 -0.217880,-116.800468 58.370174,-117.132790"
              class="id_11 id_13" stroke-opacity="1.0" stroke="#282828"/>
        <path fill="none" stroke-width="1.0"
              d="M -121.939468,-30.348616 C -96.527382,-5.753834 -95.301422,69.256470 -119.896202,94.668556"
              class="id_28 id_9" stroke-opacity="1.0" stroke="#282828"/>
        <path fill="none" stroke-width="1.0"
              d="M -16.373758,77.533089 C -24.857235,90.259697 -56.672356,96.624390 -69.398964,88.140915"
              class="id_26 id_27" stroke-opacity="1.0" stroke="#282828"/>
        <path fill="none" stroke-width="1.0"
              d="M 90.554634,-36.784389 C 68.048065,-46.417179 48.737389,-94.626221 58.370174,-117.132790"
              class="id_16 id_13" stroke-opacity="1.0" stroke="#282828"/>
        <path fill="none" stroke-width="1.0"
              d="M -71.642792,-44.233280 C -46.329140,-35.025753 -22.169952,16.756020 -31.377481,42.069672"
              class="id_25 id_14" stroke-opacity="1.0" stroke="#282828"/>
        <path fill="none" stroke-width="1.0"
              d="M -58.160511,123.513000 C -58.999146,105.959663 -33.927094,78.371719 -16.373758,77.533089"
              class="id_19 id_26" stroke-opacity="1.0" stroke="#282828"/>
        <path fill="none" stroke-width="1.0"
              d="M 112.640175,-66.819855 C 131.019562,-68.489754 161.093475,-43.425526 162.763382,-25.046139"
              class="id_22 id_21" stroke-opacity="1.0" stroke="#282828"/>
        <path fill="none" stroke-width="1.0"
              d="M 24.150900,-90.865593 C 25.741316,-102.962891 46.272877,-118.723206 58.370174,-117.132790"
              class="id_0 id_13" stroke-opacity="1.0" stroke="#282828"/>
        <path fill="none" stroke-width="1.0"
              d="M 162.763382,-25.046139 C 103.332169,-13.322117 -3.400673,-84.882904 -15.124696,-144.314117"
              class="id_21 id_8" stroke-opacity="1.0" stroke="#282828"/>
        <path fill="none" stroke-width="1.0"
              d="M 143.407333,33.666847 C 105.263023,39.253189 39.667046,-9.583754 34.080704,-47.728062"
              class="id_29 id_5" stroke-opacity="1.0" stroke="#282828"/>
        <path fill="none" stroke-width="1.0"
              d="M 38.132870,141.548553 C 4.335022,135.554855 -37.371185,75.867516 -31.377481,42.069672"
              class="id_1 id_14" stroke-opacity="1.0" stroke="#282828"/>
        <path fill="none" stroke-width="1.0"
              d="M -31.377481,42.069672 C -46.858860,4.376940 -13.541832,-75.384209 24.150900,-90.865593"
              class="id_14 id_0" stroke-opacity="1.0" stroke="#282828"/>
        <path fill="none" stroke-width="1.0"
              d="M -121.939468,-30.348616 C -94.211327,-65.028542 -0.599221,-75.456207 34.080704,-47.728062"
              class="id_28 id_5" stroke-opacity="1.0" stroke="#282828"/>
        <path fill="none" stroke-width="1.0"
              d="M -25.818068,-48.902756 C -42.761665,-70.123703 -36.345642,-127.370514 -15.124696,-144.314117"
              class="id_2 id_8" stroke-opacity="1.0" stroke="#282828"/>
        <path fill="none" stroke-width="1.0"
              d="M -25.818068,-48.902756 C 0.898073,-39.388554 26.700989,14.956950 17.186787,41.673092"
              class="id_2 id_3" stroke-opacity="1.0" stroke="#282828"/>
        <path fill="none" stroke-width="1.0"
              d="M -58.160511,123.513000 C -76.276543,130.091248 -113.317955,112.784584 -119.896202,94.668556"
              class="id_19 id_9" stroke-opacity="1.0" stroke="#282828"/>
        <path fill="none" stroke-width="1.0"
              d="M -2.082049,124.276100 C -22.772470,130.512451 -63.162613,108.831337 -69.398964,88.140915"
              class="id_15 id_27" stroke-opacity="1.0" stroke="#282828"/>
        <path fill="none" stroke-width="1.0"
              d="M -40.310673,-101.817413 C -0.113079,-84.618797 34.385395,1.475499 17.186787,41.673092"
              class="id_12 id_3" stroke-opacity="1.0" stroke="#282828"/>
        <path fill="none" stroke-width="1.0"
              d="M 81.497162,117.211899 C 70.420479,113.481895 59.400459,91.271873 63.130466,80.195190"
              class="id_7 id_23" stroke-opacity="1.0" stroke="#282828"/>
        <path fill="none" stroke-width="1.0"
              d="M 81.497162,117.211899 C 50.919411,74.176949 69.605225,-36.242107 112.640175,-66.819855"
              class="id_7 id_22" stroke-opacity="1.0" stroke="#282828"/>
        <path fill="none" stroke-width="1.0"
              d="M -58.160511,123.513000 C -79.859215,97.949997 -74.062759,27.057436 -48.499756,5.358735"
              class="id_19 id_4" stroke-opacity="1.0" stroke="#282828"/>
        <path fill="none" stroke-width="1.0"
              d="M 70.585800,18.896471 C 61.853409,-6.657669 87.086037,-58.087463 112.640175,-66.819855"
              class="id_18 id_22" stroke-opacity="1.0" stroke="#282828"/>
        <path fill="none" stroke-width="1.0"
              d="M -2.082049,124.276100 C -37.941063,122.491936 -89.053329,66.027161 -87.269157,30.168152"
              class="id_15 id_11" stroke-opacity="1.0" stroke="#282828"/>
        <path fill="none" stroke-width="1.0"
              d="M 90.554634,-36.784389 C 66.457649,-34.319885 26.615406,-66.768608 24.150900,-90.865593"
              class="id_16 id_0" stroke-opacity="1.0" stroke="#282828"/>
        <path fill="none" stroke-width="1.0"
              d="M -71.642792,-44.233280 C -86.898514,-39.796242 -116.437653,-56.024269 -120.874695,-71.279999"
              class="id_25 id_20" stroke-opacity="1.0" stroke="#282828"/>
        <path fill="none" stroke-width="1.0"
              d="M 70.585800,18.896471 C 41.269146,52.721794 -53.443829,59.484806 -87.269157,30.168152"
              class="id_18 id_11" stroke-opacity="1.0" stroke="#282828"/>
        <path fill="none" stroke-width="1.0"
              d="M -31.377481,42.069672 C 2.402366,19.512108 86.908478,36.345531 109.466042,70.125381"
              class="id_14 id_6" stroke-opacity="1.0" stroke="#282828"/>
        <path fill="none" stroke-width="1.0"
              d="M -25.818068,-48.902756 C -7.125515,-12.777843 -33.274052,69.448364 -69.398964,88.140915"
              class="id_2 id_27" stroke-opacity="1.0" stroke="#282828"/>
        <path fill="none" stroke-width="1.0"
              d="M -15.124696,-144.314117 C -6.412146,-112.994331 -40.323006,-52.945831 -71.642792,-44.233280"
              class="id_8 id_25" stroke-opacity="1.0" stroke="#282828"/>
        <path fill="none" stroke-width="1.0"
              d="M 24.150900,-90.865593 C 73.412125,-75.730423 124.601212,20.864157 109.466042,70.125381"
              class="id_0 id_6" stroke-opacity="1.0" stroke="#282828"/>
        <path fill="none" stroke-width="1.0"
              d="M -121.939468,-30.348616 C -123.369614,-74.504669 -59.280746,-142.883972 -15.124696,-144.314117"
              class="id_28 id_8" stroke-opacity="1.0" stroke="#282828"/>
        <path fill="none" stroke-width="1.0"
              d="M -121.939468,-30.348616 C -89.343414,-33.977356 -35.006218,9.473618 -31.377481,42.069672"
              class="id_28 id_14" stroke-opacity="1.0" stroke="#282828"/>
        <path fill="none" stroke-width="1.0"
              d="M -75.585655,-106.700027 C -62.303734,-94.995255 -59.938019,-57.515205 -71.642792,-44.233280"
              class="id_10 id_25" stroke-opacity="1.0" stroke="#282828"/>
        <path fill="none" stroke-width="1.0"
              d="M 4.775207,-9.310735 C -17.492905,-1.011642 -63.343700,-21.965170 -71.642792,-44.233280"
              class="id_17 id_25" stroke-opacity="1.0" stroke="#282828"/>
        <path fill="none" stroke-width="1.0"
              d="M -121.939468,-30.348616 C -114.657066,-43.184883 -84.479057,-51.515682 -71.642792,-44.233280"
              class="id_28 id_25" stroke-opacity="1.0" stroke="#282828"/>
        <path fill="none" stroke-width="1.0"
              d="M 70.585800,18.896471 C 80.232796,-8.327568 135.539337,-34.693130 162.763382,-25.046139"
              class="id_18 id_21" stroke-opacity="1.0" stroke="#282828"/>
        <path fill="none" stroke-width="1.0"
              d="M -119.896202,94.668556 C -78.914391,72.438744 15.903055,100.566734 38.132870,141.548553"
              class="id_9 id_1" stroke-opacity="1.0" stroke="#282828"/>
        <path fill="none" stroke-width="1.0"
              d="M 17.186787,41.673092 C 29.853621,62.047462 18.292320,111.609268 -2.082049,124.276100"
              class="id_3 id_15" stroke-opacity="1.0" stroke="#282828"/>
        <path fill="none" stroke-width="1.0"
              d="M -71.642792,-44.233280 C -51.197048,-66.076935 12.237048,-68.173805 34.080704,-47.728062"
              class="id_25 id_5" stroke-opacity="1.0" stroke="#282828"/>
        <path fill="none" stroke-width="1.0"
              d="M 143.407333,33.666847 C 135.535950,18.053040 147.149567,-17.174751 162.763382,-25.046139"
              class="id_29 id_21" stroke-opacity="1.0" stroke="#282828"/>
        <path fill="none" stroke-width="1.0"
              d="M -120.874695,-71.279999 C -97.387924,-85.815872 -40.353943,-72.389526 -25.818068,-48.902756"
              class="id_20 id_2" stroke-opacity="1.0" stroke="#282828"/>
        <path fill="none" stroke-width="1.0"
              d="M -120.874695,-71.279999 C -105.401314,-42.696270 -125.066826,23.389393 -153.650558,38.862778"
              class="id_20 id_24" stroke-opacity="1.0" stroke="#282828"/>
        <path fill="none" stroke-width="1.0"
              d="M -153.650558,38.862778 C -167.150146,-5.862763 -120.311203,-93.200447 -75.585655,-106.700027"
              class="id_24 id_10" stroke-opacity="1.0" stroke="#282828"/>
        <path fill="none" stroke-width="1.0"
              d="M 70.585800,18.896471 C 29.514133,34.716240 -55.823025,-3.161612 -71.642792,-44.233280"
              class="id_18 id_25" stroke-opacity="1.0" stroke="#282828"/>
        <path fill="none" stroke-width="1.0"
              d="M 24.150900,-90.865593 C 55.390297,-78.200157 83.251236,-12.342922 70.585800,18.896471"
              class="id_0 id_18" stroke-opacity="1.0" stroke="#282828"/>
        <path fill="none" stroke-width="1.0"
              d="M -16.373758,77.533089 C -31.335094,42.389965 -1.062418,-32.766724 34.080704,-47.728062"
              class="id_26 id_5" stroke-opacity="1.0" stroke="#282828"/>
        <path fill="none" stroke-width="1.0"
              d="M 143.407333,33.666847 C 136.657623,59.027889 88.491508,86.944893 63.130466,80.195190"
              class="id_29 id_23" stroke-opacity="1.0" stroke="#282828"/>
    </g>
    <g id="nodes">
        <circle fill-opacity="1.0" fill="#076678" r="10.0" cx="24.1509"
                class="id_0" cy="-90.86559" stroke="#9d0006"
                stroke-opacity="1.0" stroke-width="3.0"/>
        <circle fill-opacity="1.0" fill="#076678" r="10.0" cx="38.13287"
                class="id_1" cy="141.54855" stroke="#9d0006"
                stroke-opacity="1.0" stroke-width="3.0"/>
        <circle fill-opacity="1.0" fill="#076678" r="10.0" cx="-25.818068"
                class="id_2" cy="-48.902756" stroke="#9d0006"
                stroke-opacity="1.0" stroke-width="3.0"/>
        <circle fill-opacity="1.0" fill="#076678" r="10.0" cx="17.186787"
                class="id_3" cy="41.67309" stroke="#9d0006" stroke-opacity="1.0"
                stroke-width="3.0"/>
        <circle fill-opacity="1.0" fill="#076678" r="10.0" cx="-48.499756"
                class="id_4" cy="5.3587346" stroke="#9d0006"
                stroke-opacity="1.0" stroke-width="3.0"/>
        <circle fill-opacity="1.0" fill="#076678" r="10.0" cx="34.080704"
                class="id_5" cy="-47.72806" stroke="#9d0006"
                stroke-opacity="1.0" stroke-width="3.0"/>
        <circle fill-opacity="1.0" fill="#076678" r="10.0" cx="109.46604"
                class="id_6" cy="70.12538" stroke="#9d0006" stroke-opacity="1.0"
                stroke-width="3.0"/>
        <circle fill-opacity="1.0" fill="#076678" r="10.0" cx="81.49716"
                class="id_7" cy="117.2119" stroke="#9d0006" stroke-opacity="1.0"
                stroke-width="3.0"/>
        <circle fill-opacity="1.0" fill="#076678" r="10.0" cx="-15.124696"
                class="id_8" cy="-144.31412" stroke="#9d0006"
                stroke-opacity="1.0" stroke-width="3.0"/>
        <circle fill-opacity="1.0" fill="#076678" r="10.0" cx="-119.8962"
                class="id_9" cy="94.66856" stroke="#9d0006" stroke-opacity="1.0"
                stroke-width="3.0"/>
        <circle fill-opacity="1.0" fill="#076678" r="10.0" cx="-75.585655"
                class="id_10" cy="-106.70003" stroke="#9d0006"
                stroke-opacity="1.0" stroke-width="3.0"/>
        <circle fill-opacity="1.0" fill="#076678" r="10.0" cx="-87.26916"
                class="id_11" cy="30.168152" stroke="#9d0006"
                stroke-opacity="1.0" stroke-width="3.0"/>
        <circle fill-opacity="1.0" fill="#076678" r="10.0" cx="-40.310673"
                class="id_12" cy="-101.81741" stroke="#9d0006"
                stroke-opacity="1.0" stroke-width="3.0"/>
        <circle fill-opacity="1.0" fill="#076678" r="10.0" cx="58.370174"
                class="id_13" cy="-117.13279" stroke="#9d0006"
                stroke-opacity="1.0" stroke-width="3.0"/>
        <circle fill-opacity="1.0" fill="#076678" r="10.0" cx="-31.377481"
                class="id_14" cy="42.06967" stroke="#9d0006"
                stroke-opacity="1.0" stroke-width="3.0"/>
        <circle fill-opacity="1.0" fill="#076678" r="10.0" cx="-2.082049"
                class="id_15" cy="124.2761" stroke="#9d0006"
                stroke-opacity="1.0" stroke-width="3.0"/>
        <circle fill-opacity="1.0" fill="#076678" r="10.0" cx="90.554634"
                class="id_16" cy="-36.78439" stroke="#9d0006"
                stroke-opacity="1.0" stroke-width="3.0"/>
        <circle fill-opacity="1.0" fill="#076678" r="10.0" cx="4.7752066"
                class="id_17" cy="-9.310735" stroke="#9d0006"
                stroke-opacity="1.0" stroke-width="3.0"/>
        <circle fill-opacity="1.0" fill="#076678" r="10.0" cx="70.5858"
                class="id_18" cy="18.896471" stroke="#9d0006"
                stroke-opacity="1.0" stroke-width="3.0"/>
        <circle fill-opacity="1.0" fill="#076678" r="10.0" cx="-58.16051"
                class="id_19" cy="123.513" stroke="#9d0006" stroke-opacity="1.0"
                stroke-width="3.0"/>
        <circle fill-opacity="1.0" fill="#076678" r="10.0" cx="-120.874695"
                class="id_20" cy="-71.28" stroke="#9d0006" stroke-opacity="1.0"
                stroke-width="3.0"/>
        <circle fill-opacity="1.0" fill="#076678" r="10.0" cx="162.76338"
                class="id_21" cy="-25.046139" stroke="#9d0006"
                stroke-opacity="1.0" stroke-width="3.0"/>
        <circle fill-opacity="1.0" fill="#076678" r="10.0" cx="112.640175"
                class="id_22" cy="-66.819855" stroke="#9d0006"
                stroke-opacity="1.0" stroke-width="3.0"/>
        <circle fill-opacity="1.0" fill="#076678" r="10.0" cx="63.130466"
                class="id_23" cy="80.19519" stroke="#9d0006"
                stroke-opacity="1.0" stroke-width="3.0"/>
        <circle fill-opacity="1.0" fill="#076678" r="10.0" cx="-153.65056"
                class="id_24" cy="38.862778" stroke="#9d0006"
                stroke-opacity="1.0" stroke-width="3.0"/>
        <circle fill-opacity="1.0" fill="#076678" r="10.0" cx="-71.64279"
                class="id_25" cy="-44.23328" stroke="#9d0006"
                stroke-opacity="1.0" stroke-width="3.0"/>
        <circle fill-opacity="1.0" fill="#076678" r="10.0" cx="-16.373758"
                class="id_26" cy="77.53309" stroke="#9d0006"
                stroke-opacity="1.0" stroke-width="3.0"/>
        <circle fill-opacity="1.0" fill="#076678" r="10.0" cx="-69.398964"
                class="id_27" cy="88.140915" stroke="#9d0006"
                stroke-opacity="1.0" stroke-width="3.0"/>
        <circle fill-opacity="1.0" fill="#076678" r="10.0" cx="-121.93947"
                class="id_28" cy="-30.348616" stroke="#9d0006"
                stroke-opacity="1.0" stroke-width="3.0"/>
        <circle fill-opacity="1.0" fill="#076678" r="10.0" cx="143.40733"
                class="id_29" cy="33.666847" stroke="#9d0006"
                stroke-opacity="1.0" stroke-width="3.0"/>
    </g>
</svg>