<?xml version="1.0" encoding="UTF-8"?>
<!DOCTYPE svg PUBLIC "-//W3C//DTD SVG 1.1//EN"
    "http://www.w3.org/Graphics/SVG/1.1/DTD/svg11.dtd" >
<svg contentScriptType="text/ecmascript" width="304.0"
     xmlns:xlink="http://www.w3.org/1999/xlink" zoomAndPan="magnify"
     contentStyleType="text/css"
     viewBox="-151.000000 -141.000000 304.000000 281.470093" height="281.4701"
     preserveAspectRatio="xMidYMid meet" xmlns="http://www.w3.org/2000/svg"
     version="1.1">
    <g id="edges">
        <path fill="none" stroke-width="1.0"
              d="M -41.131348,-109.223953 C -52.315552,-106.142502 -73.714050,-118.296616 -76.795502,-129.480820"
              class="id_0 id_22" stroke-opacity="1.0" stroke="#282828"/>
        <path fill="none" stroke-width="1.0"
              d="M -41.131348,-109.223953 C 15.062929,-88.346298 68.037842,27.261618 47.160183,83.455894"
              class="id_0 id_10" stroke-opacity="1.0" stroke="#282828"/>
        <path fill="none" stroke-width="1.0"
              d="M -41.131348,-109.223953 C -54.927139,-88.917511 -106.080505,-79.151520 -126.386948,-92.947311"
              class="id_0 id_20" stroke-opacity="1.0" stroke="#282828"/>
        <path fill="none" stroke-width="1.0"
              d="M -41.131348,-109.223953 C -42.369186,-94.962982 -65.617416,-75.428268 -79.878387,-76.666107"
              class="id_0 id_24" stroke-opacity="1.0" stroke="#282828"/>
        <path fill="none" stroke-width="1.0"
              d="M -41.131348,-109.223953 C -31.047472,-123.999298 6.241358,-131.036499 21.016701,-120.952621"
              class="id_0 id_4" stroke-opacity="1.0" stroke="#282828"/>
        <path fill="none" stroke-width="1.0"
              d="M 50.568661,128.374130 C 9.881039,128.628830 -51.532448,67.979454 -51.787148,27.291834"
              class="id_1 id_11" stroke-opacity="1.0" stroke="#282828"/>
        <path fill="none" stroke-width="1.0"
              d="M 50.568661,128.374130 C 58.020351,99.437477 112.602882,67.210030 141.539536,74.661728"
              class="id_1 id_6" stroke-opacity="1.0" stroke="#282828"/>
        <path fill="none" stroke-width="1.0"
              d="M 50.568661,128.374130 C 49.985962,112.760765 72.531960,88.466682 88.145325,87.883987"
              class="id_1 id_14" stroke-opacity="1.0" stroke="#282828"/>
        <path fill="none" stroke-width="1.0"
              d="M 50.568661,128.374130 C 40.903320,120.072174 38.858231,93.121239 47.160183,83.455894"
              class="id_1 id_10" stroke-opacity="1.0" stroke="#282828"/>
        <path fill="none" stroke-width="1.0"
              d="M 50.568661,128.374130 C 35.037956,140.470108 -6.402063,135.318024 -18.498041,119.787315"
              class="id_1 id_5" stroke-opacity="1.0" stroke="#282828"/>
        <path fill="none" stroke-width="1.0"
              d="M -107.019203,-8.318301 C -97.930664,5.405900 -104.884171,39.625004 -118.608368,48.713539"
              class="id_2 id_7" stroke-opacity="1.0" stroke="#282828"/>
        <path fill="none" stroke-width="1.0"
              d="M -107.019203,-8.318301 C -121.702194,-13.383377 -136.129074,-43.005478 -131.063995,-57.688473"
              class="id_2 id_25" stroke-opacity="1.0" stroke="#282828"/>
        <path fill="none" stroke-width="1.0"
              d="M -107.019203,-8.318301 C -83.480927,-28.137779 -18.444288,-22.559582 1.375191,0.978697"
              class="id_2 id_19" stroke-opacity="1.0" stroke="#282828"/>
        <path fill="none" stroke-width="1.0"
              d="M -107.019203,-8.318301 C -76.525299,-6.273567 -33.851551,42.534382 -35.896286,73.028282"
              class="id_2 id_27" stroke-opacity="1.0" stroke="#282828"/>
        <path fill="none" stroke-width="1.0"
              d="M -107.019203,-8.318301 C -115.260605,-27.416027 -98.976112,-68.424706 -79.878387,-76.666107"
              class="id_2 id_24" stroke-opacity="1.0" stroke="#282828"/>
        <path fill="none" stroke-width="1.0"
              d="M -67.468231,-26.100197 C -53.653610,-18.558008 -44.244957,13.477211 -51.787148,27.291834"
              class="id_3 id_11" stroke-opacity="1.0" stroke="#282828"/>
        <path fill="none" stroke-width="1.0"
              d="M -67.468231,-26.100197 C -29.970852,-57.363781 73.170593,-48.013084 104.434181,-10.515707"
              class="id_3 id_13" stroke-opacity="1.0" stroke="#282828"/>
        <path fill="none" stroke-width="1.0"
              d="M -67.468231,-26.100197 C -86.505043,-19.698698 -124.662498,-38.651665 -131.063995,-57.688473"
              class="id_3 id_25" stroke-opacity="1.0" stroke="#282828"/>
        <path fill="none" stroke-width="1.0"
              d="M -67.468231,-26.100197 C -80.063446,-33.731346 -87.509537,-64.070892 -79.878387,-76.666107"
              class="id_3 id_24" stroke-opacity="1.0" stroke="#282828"/>
        <path fill="none" stroke-width="1.0"
              d="M -67.468231,-26.100197 C -64.977943,-10.604954 -84.485367,16.373343 -99.980614,18.863632"
              class="id_3 id_28" stroke-opacity="1.0" stroke="#282828"/>
        <path fill="none" stroke-width="1.0"
              d="M 21.016701,-120.952621 C 20.870430,-97.002228 -15.274568,-61.296032 -39.224968,-61.442307"
              class="id_4 id_29" stroke-opacity="1.0" stroke="#282828"/>
        <path fill="none" stroke-width="1.0"
              d="M 21.016701,-120.952621 C 44.286751,-115.316696 70.737938,-71.957741 65.102013,-48.687691"
              class="id_4 id_17" stroke-opacity="1.0" stroke="#282828"/>
        <path fill="none" stroke-width="1.0"
              d="M 21.016701,-120.952621 C 56.750690,-128.358231 121.460075,-85.865677 128.865692,-50.131687"
              class="id_4 id_15" stroke-opacity="1.0" stroke="#282828"/>
        <path fill="none" stroke-width="1.0"
              d="M 21.016701,-120.952621 C -0.251378,-103.095825 -58.938702,-108.212738 -76.795502,-129.480820"
              class="id_4 id_22" stroke-opacity="1.0" stroke="#282828"/>
        <path fill="none" stroke-width="1.0"
              d="M -18.498041,119.787315 C -31.329496,113.915161 -41.768444,85.859741 -35.896286,73.028282"
              class="id_5 id_27" stroke-opacity="1.0" stroke="#282828"/>
        <path fill="none" stroke-width="1.0"
              d="M -18.498041,119.787315 C -54.979294,115.899094 -103.868835,55.344887 -99.980614,18.863632"
              class="id_5 id_28" stroke-opacity="1.0" stroke="#282828"/>
        <path fill="none" stroke-width="1.0"
              d="M -18.498041,119.787315 C -12.632679,99.389389 26.762253,77.590530 47.160183,83.455894"
              class="id_5 id_10" stroke-opacity="1.0" stroke="#282828"/>
        <path fill="none" stroke-width="1.0"
              d="M -18.498041,119.787315 C -24.317039,103.630623 -8.810506,70.667099 7.346182,64.848099"
              class="id_5 id_23" stroke-opacity="1.0" stroke="#282828"/>
        <path fill="none" stroke-width="1.0"
              d="M 141.539536,74.661728 C 124.422501,95.296432 67.794891,100.572929 47.160183,83.455894"
              class="id_6 id_10" stroke-opacity="1.0" stroke="#282828"/>
        <path fill="none" stroke-width="1.0"
              d="M 141.539536,74.661728 C 130.102524,65.790939 126.253189,35.329247 135.123978,23.892235"
              class="id_6 id_9" stroke-opacity="1.0" stroke="#282828"/>
        <path fill="none" stroke-width="1.0"
              d="M 141.539536,74.661728 C 129.950394,76.404831 109.952011,61.635769 108.208908,50.046623"
              class="id_6 id_12" stroke-opacity="1.0" stroke="#282828"/>
        <path fill="none" stroke-width="1.0"
              d="M 141.539536,74.661728 C 114.046082,52.237812 106.441788,-22.638235 128.865692,-50.131687"
              class="id_6 id_15" stroke-opacity="1.0" stroke="#282828"/>
        <path fill="none" stroke-width="1.0"
              d="M -118.608368,48.713539 C -120.852798,39.018005 -109.676140,21.108063 -99.980614,18.863632"
              class="id_7 id_28" stroke-opacity="1.0" stroke="#282828"/>
        <path fill="none" stroke-width="1.0"
              d="M -118.608368,48.713539 C -97.203003,37.034073 -47.575752,51.622921 -35.896286,73.028282"
              class="id_7 id_27" stroke-opacity="1.0" stroke="#282828"/>
        <path fill="none" stroke-width="1.0"
              d="M -118.608368,48.713539 C -131.359177,44.405964 -144.024033,18.818378 -139.716461,6.067565"
              class="id_7 id_21" stroke-opacity="1.0" stroke="#282828"/>
        <path fill="none" stroke-width="1.0"
              d="M -118.608368,48.713539 C -113.164398,13.305790 -51.886829,-31.639883 -16.479082,-26.195917"
              class="id_7 id_26" stroke-opacity="1.0" stroke="#282828"/>
        <path fill="none" stroke-width="1.0"
              d="M 77.107361,47.564640 C 87.378830,53.420918 94.001602,77.612518 88.145325,87.883987"
              class="id_8 id_14" stroke-opacity="1.0" stroke="#282828"/>
        <path fill="none" stroke-width="1.0"
              d="M 77.107361,47.564640 C 60.367180,41.944706 43.686806,8.404545 49.306740,-8.335635"
              class="id_8 id_16" stroke-opacity="1.0" stroke="#282828"/>
        <path fill="none" stroke-width="1.0"
              d="M 77.107361,47.564640 C 78.296181,60.732323 60.327869,82.267075 47.160183,83.455894"
              class="id_8 id_10" stroke-opacity="1.0" stroke="#282828"/>
        <path fill="none" stroke-width="1.0"
              d="M 77.107361,47.564640 C 52.643738,53.393887 7.204436,25.442322 1.375191,0.978697"
              class="id_8 id_19" stroke-opacity="1.0" stroke="#282828"/>
        <path fill="none" stroke-width="1.0"
              d="M 77.107361,47.564640 C 83.976204,31.226833 118.786171,17.023392 135.123978,23.892235"
              class="id_8 id_9" stroke-opacity="1.0" stroke="#282828"/>
        <path fill="none" stroke-width="1.0"
              d="M 135.123978,23.892235 C 122.104431,23.148605 103.690552,2.503841 104.434181,-10.515707"
              class="id_9 id_13" stroke-opacity="1.0" stroke="#282828"/>
        <path fill="none" stroke-width="1.0"
              d="M 135.123978,23.892235 C 117.759590,57.638969 41.092915,82.212486 7.346182,64.848099"
              class="id_9 id_23" stroke-opacity="1.0" stroke="#282828"/>
        <path fill="none" stroke-width="1.0"
              d="M 135.123978,23.892235 C 111.120941,16.850346 85.679222,-29.717043 92.721107,-53.720081"
              class="id_9 id_18" stroke-opacity="1.0" stroke="#282828"/>
        <path fill="none" stroke-width="1.0"
              d="M -51.787148,27.291834 C -73.617859,40.632843 -126.375450,27.898281 -139.716461,6.067565"
              class="id_11 id_21" stroke-opacity="1.0" stroke="#282828"/>
        <path fill="none" stroke-width="1.0"
              d="M -51.787148,27.291834 C -46.417305,11.396739 -14.519905,-4.391144 1.375191,0.978697"
              class="id_11 id_19" stroke-opacity="1.0" stroke="#282828"/>
        <path fill="none" stroke-width="1.0"
              d="M -51.787148,27.291834 C -67.021538,7.032570 -59.484230,-46.207916 -39.224968,-61.442307"
              class="id_11 id_29" stroke-opacity="1.0" stroke="#282828"/>
        <path fill="none" stroke-width="1.0"
              d="M 108.208908,50.046623 C 95.341499,38.689102 93.076660,2.351704 104.434181,-10.515707"
              class="id_12 id_13" stroke-opacity="1.0" stroke="#282828"/>
        <path fill="none" stroke-width="1.0"
              d="M 108.208908,50.046623 C 83.984200,83.463997 -2.478915,97.252991 -35.896286,73.028282"
              class="id_12 id_27" stroke-opacity="1.0" stroke="#282828"/>
        <path fill="none" stroke-width="1.0"
              d="M 108.208908,50.046623 C 111.763664,61.626816 99.725517,84.329231 88.145325,87.883987"
              class="id_12 id_14" stroke-opacity="1.0" stroke="#282828"/>
        <path fill="none" stroke-width="1.0"
              d="M 108.208908,50.046623 C 79.840668,38.921139 53.976524,-20.319450 65.102013,-48.687691"
              class="id_12 id_17" stroke-opacity="1.0" stroke="#282828"/>
        <path fill="none" stroke-width="1.0"
              d="M 104.434181,-10.515707 C 101.397285,-23.325207 116.056198,-47.094795 128.865692,-50.131687"
              class="id_13 id_15" stroke-opacity="1.0" stroke="#282828"/>
        <path fill="none" stroke-width="1.0"
              d="M 104.434181,-10.515707 C 93.844704,0.945795 60.768246,2.253839 49.306740,-8.335635"
              class="id_13 id_16" stroke-opacity="1.0" stroke="#282828"/>
        <path fill="none" stroke-width="1.0"
              d="M 88.145325,87.883987 C 67.378319,99.436638 18.898832,85.615105 7.346182,64.848099"
              class="id_14 id_23" stroke-opacity="1.0" stroke="#282828"/>
        <path fill="none" stroke-width="1.0"
              d="M 88.145325,87.883987 C 56.222321,65.178314 42.396339,-16.764690 65.102013,-48.687691"
              class="id_14 id_17" stroke-opacity="1.0" stroke="#282828"/>
        <path fill="none" stroke-width="1.0"
              d="M 128.865692,-50.131687 C 121.313110,-25.860685 73.577744,-0.783056 49.306740,-8.335635"
              class="id_15 id_16" stroke-opacity="1.0" stroke="#282828"/>
        <path fill="none" stroke-width="1.0"
              d="M 128.865692,-50.131687 C 120.919090,-43.620449 99.232346,-45.773487 92.721107,-53.720081"
              class="id_15 id_18" stroke-opacity="1.0" stroke="#282828"/>
        <path fill="none" stroke-width="1.0"
              d="M 49.306740,-8.335635 C 9.803619,3.835293 -67.707458,-37.162987 -79.878387,-76.666107"
              class="id_16 id_24" stroke-opacity="1.0" stroke="#282828"/>
        <path fill="none" stroke-width="1.0"
              d="M 49.306740,-8.335635 C 48.538918,24.977753 -2.582897,73.796104 -35.896286,73.028282"
              class="id_16 id_27" stroke-opacity="1.0" stroke="#282828"/>
        <path fill="none" stroke-width="1.0"
              d="M 65.102013,-48.687691 C 69.619354,-55.217987 86.190811,-58.237423 92.721107,-53.720081"
              class="id_17 id_18" stroke-opacity="1.0" stroke="#282828"/>
        <path fill="none" stroke-width="1.0"
              d="M 65.102013,-48.687691 C 41.685696,-30.373217 -20.910494,-38.025986 -39.224968,-61.442307"
              class="id_17 id_29" stroke-opacity="1.0" stroke="#282828"/>
        <path fill="none" stroke-width="1.0"
              d="M 92.721107,-53.720081 C 76.385902,-26.375212 10.865788,-9.860714 -16.479082,-26.195917"
              class="id_18 id_26" stroke-opacity="1.0" stroke="#282828"/>
        <path fill="none" stroke-width="1.0"
              d="M 92.721107,-53.720081 C 85.391678,-24.511143 30.584129,8.308126 1.375191,0.978697"
              class="id_18 id_19" stroke-opacity="1.0" stroke="#282828"/>
        <path fill="none" stroke-width="1.0"
              d="M 1.375191,0.978697 C -7.630587,-0.885371 -18.343151,-17.190140 -16.479082,-26.195917"
              class="id_19 id_26" stroke-opacity="1.0" stroke="#282828"/>
        <path fill="none" stroke-width="1.0"
              d="M -126.386948,-92.947311 C -109.249878,-70.478432 -117.247574,-11.069506 -139.716461,6.067565"
              class="id_20 id_21" stroke-opacity="1.0" stroke="#282828"/>
        <path fill="none" stroke-width="1.0"
              d="M -126.386948,-92.947311 C -113.828995,-98.992783 -85.923859,-89.224060 -79.878387,-76.666107"
              class="id_20 id_24" stroke-opacity="1.0" stroke="#282828"/>
        <path fill="none" stroke-width="1.0"
              d="M -126.386948,-92.947311 C -123.775360,-110.172302 -94.020493,-132.092407 -76.795502,-129.480820"
              class="id_20 id_22" stroke-opacity="1.0" stroke="#282828"/>
        <path fill="none" stroke-width="1.0"
              d="M -126.386948,-92.947311 C -98.743492,-75.866386 -82.899689,-8.779823 -99.980614,18.863632"
              class="id_20 id_28" stroke-opacity="1.0" stroke="#282828"/>
        <path fill="none" stroke-width="1.0"
              d="M -139.716461,6.067565 C -150.737167,-8.414136 -145.545700,-46.667755 -131.063995,-57.688473"
              class="id_21 id_25" stroke-opacity="1.0" stroke="#282828"/>
        <path fill="none" stroke-width="1.0"
              d="M -139.716461,6.067565 C -98.547821,-11.588854 -10.310238,23.679464 7.346182,64.848099"
              class="id_21 id_23" stroke-opacity="1.0" stroke="#282828"/>
        <path fill="none" stroke-width="1.0"
              d="M -76.795502,-129.480820 C -73.290733,-104.268654 -105.851830,-61.193245 -131.063995,-57.688473"
              class="id_22 id_25" stroke-opacity="1.0" stroke="#282828"/>
        <path fill="none" stroke-width="1.0"
              d="M -76.795502,-129.480820 C -44.075233,-120.887123 -7.885384,-58.916183 -16.479082,-26.195917"
              class="id_22 id_26" stroke-opacity="1.0" stroke="#282828"/>
        <path fill="none" stroke-width="1.0"
              d="M 7.346182,64.848099 C -15.627674,51.404350 -29.922832,-3.222061 -16.479082,-26.195917"
              class="id_23 id_26" stroke-opacity="1.0" stroke="#282828"/>
        <path fill="none" stroke-width="1.0"
              d="M -131.063995,-57.688473 C -113.446960,-76.807045 -58.343540,-79.059341 -39.224968,-61.442307"
              class="id_25 id_29" stroke-opacity="1.0" stroke="#282828"/>
        <path fill="none" stroke-width="1.0"
              d="M -99.980614,18.863632 C -103.890671,-9.348685 -67.437286,-57.532249 -39.224968,-61.442307"
              class="id_28 id_29" stroke-opacity="1.0" stroke="#282828"/>
    </g>
    <g id="nodes">
        <circle fill-opacity="1.0" fill="#076678" r="10.0" cx="-41.131348"
                class="id_0" cy="-109.22395" stroke="#9d0006"
                stroke-opacity="1.0" stroke-width="3.0"/>
        <circle fill-opacity="1.0" fill="#076678" r="10.0" cx="50.56866"
                class="id_1" cy="128.37413" stroke="#9d0006"
                stroke-opacity="1.0" stroke-width="3.0"/>
        <circle fill-opacity="1.0" fill="#076678" r="10.0" cx="-107.0192"
                class="id_2" cy="-8.318301" stroke="#9d0006"
                stroke-opacity="1.0" stroke-width="3.0"/>
        <circle fill-opacity="1.0" fill="#076678" r="10.0" cx="-67.46823"
                class="id_3" cy="-26.100197" stroke="#9d0006"
                stroke-opacity="1.0" stroke-width="3.0"/>
        <circle fill-opacity="1.0" fill="#076678" r="10.0" cx="21.0167"
                class="id_4" cy="-120.95262" stroke="#9d0006"
                stroke-opacity="1.0" stroke-width="3.0"/>
        <circle fill-opacity="1.0" fill="#076678" r="10.0" cx="-18.498041"
                class="id_5" cy="119.787315" stroke="#9d0006"
                stroke-opacity="1.0" stroke-width="3.0"/>
        <circle fill-opacity="1.0" fill="#076678" r="10.0" cx="141.53954"
                class="id_6" cy="74.66173" stroke="#9d0006" stroke-opacity="1.0"
                stroke-width="3.0"/>
        <circle fill-opacity="1.0" fill="#076678" r="10.0" cx="-118.60837"
                class="id_7" cy="48.71354" stroke="#9d0006" stroke-opacity="1.0"
                stroke-width="3.0"/>
        <circle fill-opacity="1.0" fill="#076678" r="10.0" cx="77.10736"
                class="id_8" cy="47.56464" stroke="#9d0006" stroke-opacity="1.0"
                stroke-width="3.0"/>
        <circle fill-opacity="1.0" fill="#076678" r="10.0" cx="135.12398"
                class="id_9" cy="23.892235" stroke="#9d0006"
                stroke-opacity="1.0" stroke-width="3.0"/>
        <circle fill-opacity="1.0" fill="#076678" r="10.0" cx="47.160183"
                class="id_10" cy="83.455894" stroke="#9d0006"
                stroke-opacity="1.0" stroke-width="3.0"/>
        <circle fill-opacity="1.0" fill="#076678" r="10.0" cx="-51.787148"
                class="id_11" cy="27.291834" stroke="#9d0006"
                stroke-opacity="1.0" stroke-width="3.0"/>
        <circle fill-opacity="1.0" fill="#076678" r="10.0" cx="108.20891"
                class="id_12" cy="50.046623" stroke="#9d0006"
                stroke-opacity="1.0" stroke-width="3.0"/>
        <circle fill-opacity="1.0" fill="#076678" r="10.0" cx="104.43418"
                class="id_13" cy="-10.515707" stroke="#9d0006"
                stroke-opacity="1.0" stroke-width="3.0"/>
        <circle fill-opacity="1.0" fill="#076678" r="10.0" cx="88.145325"
                class="id_14" cy="87.88399" stroke="#9d0006"
                stroke-opacity="1.0" stroke-width="3.0"/>
        <circle fill-opacity="1.0" fill="#076678" r="10.0" cx="128.86569"
                class="id_15" cy="-50.131687" stroke="#9d0006"
                stroke-opacity="1.0" stroke-width="3.0"/>
        <circle fill-opacity="1.0" fill="#076678" r="10.0" cx="49.30674"
                class="id_16" cy="-8.335635" stroke="#9d0006"
                stroke-opacity="1.0" stroke-width="3.0"/>
        <circle fill-opacity="1.0" fill="#076678" r="10.0" cx="65.10201"
                class="id_17" cy="-48.68769" stroke="#9d0006"
                stroke-opacity="1.0" stroke-width="3.0"/>
        <circle fill-opacity="1.0" fill="#076678" r="10.0" cx="92.72111"
                class="id_18" cy="-53.72008" stroke="#9d0006"
                stroke-opacity="1.0" stroke-width="3.0"/>
        <circle fill-opacity="1.0" fill="#076678" r="10.0" cx="1.3751909"
                class="id_19" cy="0.9786974" stroke="#9d0006"
                stroke-opacity="1.0" stroke-width="3.0"/>
        <circle fill-opacity="1.0" fill="#076678" r="10.0" cx="-126.38695"
                class="id_20" cy="-92.94731" stroke="#9d0006"
                stroke-opacity="1.0" stroke-width="3.0"/>
        <circle fill-opacity="1.0" fill="#076678" r="10.0" cx="-139.71646"
                class="id_21" cy="6.0675654" stroke="#9d0006"
                stroke-opacity="1.0" stroke-width="3.0"/>
        <circle fill-opacity="1.0" fill="#076678" r="10.0" cx="-76.7955"
                class="id_22" cy="-129.48082" stroke="#9d0006"
                stroke-opacity="1.0" stroke-width="3.0"/>
        <circle fill-opacity="1.0" fill="#076678" r="10.0" cx="7.3461823"
                class="id_23" cy="64.8481" stroke="#9d0006" stroke-opacity="1.0"
                stroke-width="3.0"/>
        <circle fill-opacity="1.0" fill="#076678" r="10.0" cx="-79.87839"
                class="id_24" cy="-76.66611" stroke="#9d0006"
                stroke-opacity="1.0" stroke-width="3.0"/>
        <circle fill-opacity="1.0" fill="#076678" r="10.0" cx="-131.064"
                class="id_25" cy="-57.688473" stroke="#9d0006"
                stroke-opacity="1.0" stroke-width="3.0"/>
        <circle fill-opacity="1.0" fill="#076678" r="10.0" cx="-16.479082"
                class="id_26" cy="-26.195917" stroke="#9d0006"
                stroke-opacity="1.0" stroke-width="3.0"/>
        <circle fill-opacity="1.0" fill="#076678" r="10.0" cx="-35.896286"
                class="id_27" cy="73.02828" stroke="#9d0006"
                stroke-opacity="1.0" stroke-width="3.0"/>
        <circle fill-opacity="1.0" fill="#076678" r="10.0" cx="-99.98061"
                class="id_28" cy="18.863632" stroke="#9d0006"
                stroke-opacity="1.0" stroke-width="3.0"/>
        <circle fill-opacity="1.0" fill="#076678" r="10.0" cx="-39.224968"
                class="id_29" cy="-61.442307" stroke="#9d0006"
                stroke-opacity="1.0" stroke-width="3.0"/>
    </g>
</svg>